<?xml version="1.0" encoding="UTF-8"?>
<svg id="_2" data-name="2" xmlns="http://www.w3.org/2000/svg" viewBox="0 0 611.84 800">
  <path d="M63.43,333.5c-7.83,0-14.19,6.35-14.19,14.19s6.35,14.17,14.19,14.17,14.19-6.34,14.19-14.17-6.35-14.19-14.19-14.19Z"/>
  <path d="M608.16,681.57c2.33-5.38,3.7-11.71,3.68-18.6.02-6.71-1.15-12.99-3.29-18.57-1.86-4.89-4.4-9.24-7.32-13.02-5.12-6.63-11.27-11.58-17.25-15.69-4.5-3.09-8.94-5.7-12.96-8.1-6.04-3.56-11.13-6.76-13.81-9.33-1.34-1.25-2.08-2.26-2.4-2.89-.12-.23-.17-.39-.22-.56l-.27-2.39v-.03c-.11-1.14-2.54-24.57-2.54-58.89,0-39.1,3.18-92.38,16.17-142.71,9.32-36.16,13.47-69.74,13.47-100.64.02-41.13-7.4-77.54-19.73-108.9-18.5-47.07-48.02-82.74-79.98-106.68-15.98-11.99-32.57-21.04-48.84-27.17-16.26-6.12-32.2-9.32-47.03-9.32-1.09,0-2.17.05-3.25.09-2.48-3.39-5.95-7.74-10.38-12.38-4.68-4.9-10.41-10.1-17.23-14.66-6.84-4.56-14.8-8.47-23.86-10.5C329.23.2,327.3,0,325.43,0c-3.34-.02-6.52.64-9.41,1.69-5.45,2-9.85,5.23-13.72,8.91-6.74,6.52-12.16,14.67-17.03,23.41-7.26,13.08-13.06,27.5-17.18,38.8-2.06,5.68-3.68,10.55-4.81,14.02-12.24,5.99-24.16,13.94-35.74,22.88-19.88,15.36-38.71,33.71-55.32,50.55-8.27,8.41-16,16.47-22.91,23.55-6.93,7.04-13.08,13.14-18.04,17.54l-.25.23-.25.25s-1.5,1.48-4.15,4.12c-9.32,9.23-32.81,32.45-55.64,54.77-11.42,11.17-22.68,22.12-31.89,30.95-4.59,4.4-8.68,8.29-12,11.39-3.31,3.09-5.92,5.45-7.26,6.59-6.54,5.51-11.55,11.74-14.89,18.42C1.59,334.78-.02,341.91,0,348.83c0,8.12,2.14,15.86,5.7,22.76,5.35,10.37,13.78,18.98,23.9,25.16,10.15,6.17,22.1,9.96,34.75,9.96,2.29,0,4.62-.16,6.93-.42.56,3.1,1.53,6.09,2.87,8.87,3.18,6.52,8.18,12.03,14.48,16.09,6.3,4.04,14.02,6.59,22.41,6.57,7.41.01,15.27-2.03,22.63-6.32,10.64-6.2,20.51-13.57,31.92-19.54,11.44-5.98,24.21-10.72,40.94-11.95,11.27-.81,22.38-2.28,33.04-4.31-.3,4.71-1.09,9.22-2.42,13.75-2.86,9.88-8.18,19.9-15.03,30.98-10.22,16.64-23.77,35.48-34.99,59.94-11.22,24.43-19.92,54.52-20.74,93.13v.33c0,.37-.05.61-.13.86-.14.47-.47,1.22-1.53,2.42-.94,1.03-2.39,2.31-4.31,3.73-3.37,2.47-8.09,5.23-13.3,8.35-7.84,4.72-16.95,10.26-24.66,18.75-3.84,4.23-7.29,9.29-9.72,15.2-2.44,5.9-3.79,12.61-3.79,19.84-.03,9.22,2.43,17.34,6.28,23.72,2.87,4.77,6.4,8.58,9.99,11.55,2.29,1.89,4.59,3.4,6.8,4.71l-17.75,29.89v67.16h492.27v-67.16l-17.73-29.86c3.36-1.98,6.93-4.57,10.33-7.99,3.47-3.53,6.71-7.99,9.02-13.42ZM203.41,527.29c9.83-27.63,24.22-48.29,37.05-68.55,6.4-10.11,12.42-20.17,16.98-31.06,4.56-10.85,7.55-22.66,7.54-35.56,0-.89-.05-1.78-.08-2.65,2.33-.72,4.62-1.48,6.87-2.26,9.58-3.36,18.27-7.31,25.78-11.99,7.51-4.7,13.92-10.08,18.57-16.98l-21.04-14.03c-1.75,2.7-5.42,6.2-10.9,9.57-8.16,5.12-20.1,9.96-33.9,13.63-13.84,3.65-29.58,6.24-45.57,7.38-20.73,1.45-37.4,7.68-50.88,14.8-13.5,7.12-24.05,15.01-32.82,20.04-3.82,2.2-7.07,2.9-9.98,2.93-2.18,0-4.23-.45-6.12-1.2-2.81-1.14-5.23-3.1-6.77-5.18-1.59-2.09-2.15-4.17-2.14-5.37.02-.89.17-1.4.64-2.14l-.97-.64c1.69-1,3.36-2.06,4.96-3.25,3.47-2.53,8.99-6.15,15.14-10.02,9.26-5.82,20.04-12.3,28.47-17.28,4.21-2.51,7.85-4.64,10.42-6.13,1.28-.75,2.31-1.34,3-1.75.7-.41,1.08-.62,1.08-.62l-12.63-21.88s-10.99,6.34-23.94,14.11c-6.48,3.9-13.45,8.13-19.85,12.18-6.41,4.03-12.2,7.8-16.54,10.96-7.01,5.07-14.17,7.08-21.45,7.12-4.99,0-10.04-1.03-14.77-2.89-7.12-2.79-13.48-7.54-17.78-12.95-2.15-2.72-3.82-5.57-4.9-8.41-1.08-2.84-1.62-5.63-1.64-8.37.03-3.12.69-6.18,2.31-9.46,1.62-3.26,4.28-6.79,8.55-10.4,2.31-1.97,5.53-4.92,9.74-8.83,14.55-13.67,40.16-38.71,62.21-60.39,20.9-20.54,38.52-38.02,40.32-39.78,7.66-6.85,16.4-15.83,26.24-25.93,14.89-15.36,32.15-33.28,50.16-49.21,18.01-15.97,36.85-29.87,53.97-37.33l5.43-2.36,1.64-5.68v-.05c.27-.92,6.35-21.35,15.34-40.82,4.45-9.71,9.71-19.18,14.73-25.42,2.47-3.15,4.89-5.43,6.65-6.63.91-.59,1.59-.92,2.06-1.09.47-.16.69-.17.81-.17l.19.02h.03c5.28,1.17,10.47,3.62,15.33,6.85,7.27,4.84,13.61,11.39,17.95,16.7,2.17,2.65,3.85,4.98,4.96,6.59.56.81.97,1.43,1.22,1.84l.28.44.03.06,4.21,7.02,8.12-.98c2.56-.3,5.28-.47,8.1-.47,14.84-.03,33.25,4.45,52.18,13.81,28.45,14.03,58.06,38.88,80.45,74.33,22.35,35.46,37.66,81.51,37.69,138.66,0,28.62-3.89,60.06-12.69,94.32-13.77,53.49-16.95,108.56-16.95,149.03,0,20.24.81,36.79,1.53,47.64h-35.76c-5.43-23.37-7.63-46.34-7.63-69.02-.02-39.25,6.54-77.62,13.88-114.92,7.3-37.32,15.42-73.55,17.96-108.87v-.02c.27-3.84.41-7.74.41-11.72,0-18.59-2.95-38.69-9.15-58.59-9.3-29.81-25.89-59.33-51.34-81.68-12.72-11.16-27.67-20.48-44.81-26.95-17.11-6.48-36.4-10.11-57.7-10.1v25.27c24.62.02,45.09,5.51,62.32,14.58,12.94,6.82,24.07,15.69,33.56,26.03,14.23,15.5,24.75,34.31,31.65,53.83,6.93,19.51,10.21,39.72,10.19,57.61,0,3.4-.12,6.71-.34,9.94h0c-2.31,32.65-10.13,68.1-17.56,105.79-7.4,37.71-14.34,77.71-14.36,119.79,0,22.46,2.03,45.5,7.02,69.02H192.33c1.56-20.91,5.62-38.49,11.08-53.83ZM581.25,774.73H139.54v-34.95l18.5-31.15h404.74l18.48,31.15v34.95h0ZM583.87,673.71c-1.17,1.97-2.68,3.62-4.4,5.06-2.59,2.17-5.67,3.7-8.04,4.62-.34.14-.64.23-.94.34v-.37H150.71v.53c-.53-.19-1.09-.39-1.75-.64-3.06-1.23-7.07-3.47-9.86-6.59-1.4-1.57-2.56-3.32-3.43-5.48-.84-2.15-1.44-4.74-1.45-8.23.02-3.87.64-6.91,1.66-9.62.89-2.37,2.11-4.48,3.7-6.55,2.78-3.61,6.76-6.99,11.53-10.27,3.57-2.45,7.54-4.81,11.6-7.23,6.1-3.67,12.42-7.32,18.11-12.56,2.81-2.61,5.49-5.73,7.55-9.62.13-.23.2-.48.31-.72h343.46c1.42,2.87,3.2,5.4,5.13,7.57,2.54,2.83,5.32,5.15,8.18,7.24,4.99,3.64,10.24,6.63,15.27,9.65,7.52,4.48,14.42,9.01,18.87,14,2.25,2.5,3.93,5.03,5.1,7.87,1.17,2.86,1.87,6.09,1.89,10.24-.03,4.93-1.14,8.1-2.7,10.75Z"/>
</svg>