<?xml version="1.0" encoding="UTF-8"?>
<svg id="_2" data-name="2" xmlns="http://www.w3.org/2000/svg" viewBox="0 0 532.26 800">
  <defs>
    <style>
      .cls-1 {
        fill: #f2f2f2;
      }
    </style>
  </defs>
  <path class="cls-1" d="M266.13,283.02c39.03,0,74.48-15.86,100.05-41.45,25.6-25.57,41.45-61.02,41.45-100.05s-15.85-74.5-41.45-100.07C340.61,15.86,305.16,0,266.13,0s-74.5,15.86-100.06,41.45c-25.6,25.57-41.46,61.02-41.45,100.07-.01,39.03,15.85,74.48,41.45,100.05,25.55,25.59,61.02,41.45,100.06,41.45ZM184.95,60.33c20.81-20.8,49.43-33.61,81.17-33.63,31.74.01,60.35,12.83,81.17,33.63,20.8,20.81,33.61,49.45,33.63,81.19-.02,31.74-12.83,60.34-33.63,81.17-20.83,20.8-49.43,33.61-81.17,33.63-31.74-.02-60.36-12.83-81.17-33.63-20.8-20.83-33.63-49.43-33.64-81.17.02-31.74,12.84-60.38,33.64-81.19Z"/>
  <path class="cls-1" d="M520.95,688.22c3.18-3.78,6.07-8.48,8.1-14.05,2.03-5.57,3.21-11.95,3.21-18.99,0-7.62-1.77-14.88-4.62-21.43-5.1-11.52-13.37-21.02-22.74-29.35-14.11-12.45-31.05-22.46-46.1-30.83-7.53-4.17-14.57-7.9-20.43-11.14-2.93-1.62-5.55-3.12-7.76-4.46-2.21-1.34-3.99-2.53-5.16-3.42-21.17-16.05-36.9-34.1-47.25-52.04-10.34-17.94-15.26-35.73-15.26-51.32,0-9.18,1.68-17.59,4.89-25.1,2.42-5.63,5.69-10.75,9.93-15.38,6.33-6.91,14.85-12.76,26.12-16.97,11.24-4.21,25.23-6.73,42.11-6.73h13.35v-87.28H72.91v87.28h13.36c14.99,0,27.72,1.99,38.25,5.39,15.82,5.13,26.68,13.23,33.89,23.11,7.17,9.9,10.87,21.89,10.88,35.67.01,15.58-4.9,33.38-15.26,51.32-10.35,17.94-26.09,35.98-47.24,52.04-1.8,1.37-4.98,3.38-8.95,5.64-7,4.01-16.42,8.91-26.56,14.58-15.22,8.53-32.11,18.71-45.94,31.43-6.89,6.38-13.08,13.43-17.72,21.56C3,635.84-.01,645.16,0,655.18c-.01,9.38,2.08,17.62,5.49,24.26,2.53,4.99,5.75,9.07,9.06,12.3,1.96,1.9,3.93,3.43,5.85,4.8l-19.28,32.48v70.98h529.99v-70.98l-19.26-32.45c3.02-2.14,6.15-4.85,9.1-8.35ZM504.42,773.3H27.83v-36.94l17.53-29.53h441.54l17.53,29.53v36.94h0ZM502.96,667.33c-1.09,2.15-2.43,3.83-3.89,5.27-2.18,2.12-4.7,3.59-6.6,4.46-.94.43-1.71.71-2.18.85l-.41.13-8.93,2.06H51.29l-8.91-2.06c-.12-.03-1.3-.37-2.92-1.13-2.47-1.16-5.75-3.27-8.19-6.47-1.24-1.6-2.33-3.51-3.15-5.94-.82-2.43-1.41-5.43-1.41-9.34,0-3.58.76-7.04,2.39-10.72,2.77-6.39,8.37-13.36,15.97-20.08,11.37-10.1,26.87-19.47,41.33-27.45,7.25-4.01,14.23-7.7,20.43-11.14,3.11-1.72,6.01-3.37,8.7-5.01,2.68-1.63,5.13-3.24,7.42-4.96,23.74-18.01,41.89-38.6,54.23-59.96,12.28-21.34,18.81-43.51,18.83-64.66,0-12.43-2.28-24.51-7.04-35.61-7.1-16.65-19.85-30.89-37.32-40.48-14.38-7.93-31.82-12.77-52.03-14.26v-34.41h333.03v34.36c-12.05.88-23.09,2.96-33.11,6.19-20.39,6.54-36.54,17.98-47.31,32.83-10.78,14.82-16,32.74-15.97,51.38,0,21.15,6.51,43.32,18.82,64.66,12.31,21.36,30.49,41.95,54.23,59.96,3.48,2.62,7.38,4.99,11.81,7.56,7.76,4.43,17.09,9.28,26.81,14.7,14.55,8.1,29.9,17.6,40.86,27.75,5.48,5.07,9.82,10.22,12.62,15.16,2.81,4.96,4.11,9.52,4.14,14.2-.03,5.56-1.15,9.27-2.6,12.15Z"/>
</svg>